<?xml version="1.0" standalone="no"?>
<!DOCTYPE svg PUBLIC "-//W3C//DTD SVG 20010904//EN"
 "http://www.w3.org/TR/2001/REC-SVG-20010904/DTD/svg10.dtd">
<svg version="1.0" xmlns="http://www.w3.org/2000/svg"
 width="360.000000pt" height="360.000000pt" viewBox="0 0 360.000000 360.000000"
 preserveAspectRatio="xMidYMid meet">

<g transform="translate(0.000000,360.000000) scale(0.100000,-0.100000)"
fill="#000000" stroke="none">
<path d="M1626 2715 c-353 -74 -617 -315 -723 -662 -24 -80 -26 -103 -27 -248
0 -185 16 -261 84 -404 103 -214 278 -378 502 -468 172 -70 412 -81 591 -29
316 93 546 323 644 643 24 80 27 102 27 253 0 151 -3 173 -27 253 -52 169
-135 306 -255 418 -118 112 -234 179 -389 225 -111 33 -317 42 -427 19z m407
-80 c302 -87 526 -316 608 -620 18 -64 22 -108 22 -215 0 -107 -4 -151 -22
-215 -82 -304 -303 -529 -608 -621 -77 -24 -106 -27 -228 -27 -113 0 -155 4
-220 22 -310 84 -543 317 -626 626 -31 114 -31 316 0 430 80 297 302 528 590
615 106 32 163 39 286 35 79 -3 135 -11 198 -30z"/>
<path d="M1777 2354 c-4 -4 -7 -124 -7 -266 l0 -258 -262 -2 -263 -3 0 -25 0
-25 262 -3 263 -2 2 -263 3 -262 25 0 25 0 3 262 2 263 263 2 262 3 0 25 0 25
-262 3 -263 2 -2 263 c-3 255 -4 262 -23 265 -12 2 -24 0 -28 -4z"/>
</g>
</svg>
