<?xml version="1.0" standalone="no"?>
<!DOCTYPE svg PUBLIC "-//W3C//DTD SVG 20010904//EN"
 "http://www.w3.org/TR/2001/REC-SVG-20010904/DTD/svg10.dtd">
<svg version="1.0" xmlns="http://www.w3.org/2000/svg"
 width="512.000000pt" height="512.000000pt" viewBox="0 0 512.000000 512.000000"
 preserveAspectRatio="xMidYMid meet">

<g transform="translate(0.000000,512.000000) scale(0.100000,-0.100000)"
fill="#000000" stroke="none">
<path d="M992 4573 c-18 -9 -43 -30 -55 -47 l-22 -31 -3 -1939 -2 -1938 21
-38 c12 -21 38 -47 59 -59 l38 -21 1315 0 1316 0 -53 50 -53 50 -1256 0
c-1128 0 -1257 2 -1271 16 -14 14 -16 203 -16 1929 0 1726 2 1915 16 1929 14
14 158 16 1433 16 1178 0 1420 -2 1430 -13 8 -10 12 -367 13 -1290 l3 -1277
48 41 47 41 -2 1253 c-3 1250 -3 1254 -24 1282 -11 15 -36 36 -55 45 -32 17
-122 18 -1464 18 -1297 0 -1433 -2 -1463 -17z"/>
<path d="M1500 3950 l0 -50 250 0 250 0 0 50 0 50 -250 0 -250 0 0 -50z"/>
<path d="M2200 3845 l0 -155 650 0 650 0 0 155 0 155 -650 0 -650 0 0 -155z"/>
<path d="M1500 3450 l0 -50 250 0 250 0 0 50 0 50 -250 0 -250 0 0 -50z"/>
<path d="M2200 3345 l0 -155 650 0 650 0 0 155 0 155 -650 0 -650 0 0 -155z"/>
<path d="M1500 2950 l0 -50 250 0 250 0 0 50 0 50 -250 0 -250 0 0 -50z"/>
<path d="M2200 2845 l0 -155 650 0 650 0 0 155 0 155 -650 0 -650 0 0 -155z"/>
<path d="M1500 2450 l0 -50 250 0 250 0 0 50 0 50 -250 0 -250 0 0 -50z"/>
<path d="M2200 2345 l0 -155 650 0 650 0 0 155 0 155 -650 0 -650 0 0 -155z"/>
<path d="M3969 1864 c-13 -14 -63 -52 -112 -85 -155 -103 -324 -137 -475 -94
-34 10 -66 15 -70 11 -4 -4 -7 -89 -6 -189 0 -148 5 -201 22 -284 54 -252 153
-436 317 -591 94 -90 155 -132 273 -192 l83 -42 74 35 c329 157 545 453 609
836 16 93 22 372 10 418 -6 20 -8 20 -40 7 -57 -24 -162 -34 -238 -23 -119 16
-252 81 -351 172 -29 26 -57 47 -62 47 -5 0 -20 -12 -34 -26z m93 -159 c62
-55 154 -108 227 -129 68 -20 185 -21 239 -2 22 8 43 12 46 9 10 -10 7 -243
-4 -313 -6 -36 -17 -89 -26 -117 l-15 -53 -264 0 -265 0 0 -280 0 -280 -72 36
c-202 101 -359 271 -437 472 l-21 52 265 0 265 0 0 325 c0 179 3 325 6 325 3
0 29 -20 56 -45z"/>
</g>
</svg>
