<?xml version="1.0" standalone="no"?>
<!DOCTYPE svg PUBLIC "-//W3C//DTD SVG 20010904//EN"
 "http://www.w3.org/TR/2001/REC-SVG-20010904/DTD/svg10.dtd">
<svg version="1.0" xmlns="http://www.w3.org/2000/svg"
 width="512.000000pt" height="512.000000pt" viewBox="0 0 512.000000 512.000000"
 preserveAspectRatio="xMidYMid meet">

<g transform="translate(0.000000,512.000000) scale(0.100000,-0.100000)"
fill="#000000" stroke="none">
<path d="M2523 4055 c-29 -8 -72 -26 -95 -41 -24 -14 -401 -384 -839 -823
-909 -909 -854 -843 -854 -1011 0 -134 23 -181 158 -317 116 -119 184 -159
282 -169 69 -7 167 14 224 48 20 11 307 291 639 622 l602 601 603 -601 c331
-331 618 -611 638 -622 53 -32 155 -55 214 -49 105 11 159 41 276 154 146 141
174 195 174 333 0 164 55 100 -862 1017 -914 914 -853 862 -1021 869 -57 3
-105 -1 -139 -11z"/>
</g>
</svg>
