<?xml version="1.0" standalone="no"?>
<!DOCTYPE svg PUBLIC "-//W3C//DTD SVG 20010904//EN"
 "http://www.w3.org/TR/2001/REC-SVG-20010904/DTD/svg10.dtd">
<svg version="1.0" xmlns="http://www.w3.org/2000/svg"
 width="128.000000pt" height="128.000000pt" viewBox="0 0 128.000000 128.000000"
 preserveAspectRatio="xMidYMid meet">

<g transform="translate(0.000000,128.000000) scale(0.100000,-0.100000)"
fill="#000000" stroke="none">
<path d="M535 1226 c-35 -15 -55 -52 -55 -101 l0 -35 -133 0 c-90 0 -137 -4
-145 -12 -17 -17 -17 -1009 0 -1026 17 -17 859 -17 876 0 17 17 17 1009 0
1026 -8 8 -55 12 -145 12 l-133 0 0 35 c0 51 -24 91 -61 104 -43 15 -167 13
-204 -3z m193 -52 c18 -13 22 -25 22 -73 l0 -58 42 -7 c50 -8 68 -21 68 -50 0
-43 -14 -46 -220 -46 -206 0 -220 3 -220 46 0 29 18 42 68 50 l42 7 0 58 c0
75 18 89 110 89 43 0 73 -5 88 -16z m-364 -166 c-8 -46 10 -85 48 -108 30 -18
51 -20 228 -20 177 0 198 2 228 20 39 24 56 62 47 108 l-6 33 63 -3 63 -3 0
-470 0 -470 -395 0 -395 0 -3 460 c-1 253 0 466 3 473 3 8 26 12 64 12 l60 0
-5 -32z"/>
<path d="M578 684 c-52 -28 -73 -101 -44 -156 14 -26 13 -28 -24 -52 -45 -30
-80 -96 -80 -154 l0 -42 210 0 210 0 0 42 c0 58 -35 124 -80 154 -37 24 -38
26 -24 52 55 105 -63 214 -168 156z m109 -56 c45 -42 15 -111 -47 -111 -62 0
-90 65 -48 110 27 29 65 29 95 1z m40 -188 c33 -20 56 -50 68 -87 l6 -23 -161
0 -161 0 6 23 c12 37 35 67 68 87 43 27 131 27 174 0z"/>
</g>
</svg>
